<?xml version="1.0" encoding="iso-8859-1"?>
<!-- Generator: Adobe Illustrator 19.2.1, SVG Export Plug-In . SVG Version: 6.00 Build 0)  -->
<svg version="1.1" id="Layer_1" xmlns="http://www.w3.org/2000/svg" xmlns:xlink="http://www.w3.org/1999/xlink" x="0px" y="0px"
	 viewBox="0 0 172 123" style="enable-background:new 0 0 172 123;" xml:space="preserve">
<path style="fill:#42A77E;" d="M80.629,55.787c-0.354-0.736-0.733-1.423-1.099-2.089c-0.493-0.895-1.002-1.821-1.423-2.822
	c-0.537-1.278-0.04-2.541-0.037-2.55c0.406-0.964,0.703-1.961,0.881-2.963c0.42-2.361-0.159-4.502-0.718-6.571
	c-0.102-0.377-0.204-0.753-0.298-1.129c-0.3-1.191-0.481-1.91-0.371-2.297c0.104-0.36,0.568-0.75,1.448-1.464
	c4.268-3.464,5.301-6.555,3.812-11.404c-1-3.259-3.031-6.284-6.389-9.52c-1.854-1.787-3.948-3.431-6.401-5.027
	c-0.071-0.046-1.268-0.771-1.283-0.78c-0.804-0.475-1.662-0.981-1.7-1.004c-1.453-0.914-3.016-1.58-4.215-2.058
	c-3.727-1.486-6.833-2.435-9.775-2.986c-3.191-0.598-6.603-1.177-10.118-1.119c-6.288,0.097-11.847,1.208-16.996,3.395
	c-5.084,2.16-9.274,4.909-12.811,8.405C6.815,18.052,2.846,25.933,1.341,35.226c-0.431,2.661-0.358,5.347-0.287,7.945l0.008,0.298
	c0.097,3.614,0.797,7.404,2.202,11.928c1.263,4.068,3.045,8.187,5.445,12.592c0.139,0.255,0.277,0.51,0.418,0.772
	c0.414,0.765,0.841,1.557,1.292,2.332c0.183,0.313,0.589,0.864,1.261,1.04c0.414,0.109,0.849,0.048,1.223-0.173
	c0.463-0.273,0.641-0.654,0.709-0.925c0.158-0.632-0.145-1.131-0.307-1.397l-0.016-0.026c-0.013-0.021-0.026-0.042-0.036-0.062
	c-0.321-0.621-0.648-1.232-0.964-1.822c-0.569-1.062-1.158-2.162-1.678-3.259c-1.047-2.212-2.242-4.848-3.168-7.629
	c-0.298-0.894-0.556-1.832-0.807-2.747c-0.198-0.72-0.403-1.464-0.629-2.197c-0.48-1.552-0.807-3.293-0.999-5.321
	c-0.249-2.623-0.465-5.716-0.184-8.777c0.334-3.648,1.152-7.148,2.5-10.701c0.991-2.611,2.442-5.276,4.435-8.144
	c2.541-3.656,5.858-6.778,9.86-9.281c4.559-2.851,9.451-4.661,14.539-5.378c4.806-0.678,9.679-0.681,14.483-0.009
	c2.259,0.316,4.649,0.863,7.307,1.673c1.699,0.518,3.082,1.023,4.353,1.591c0.281,0.126,0.564,0.248,0.848,0.371
	c0.954,0.412,1.855,0.802,2.694,1.32l0.029,0.016c0.019,0.01,1.903,1.025,3.162,1.961c1.761,1.309,4.831,4.017,6.15,5.548
	c1.838,2.131,3.619,4.511,4.201,7.468c0.584,2.965-0.242,5.237-2.527,6.947c-0.459,0.343-0.922,0.681-1.394,1.025l-0.03,0.022
	c-2.231,1.628-4.539,3.311-6.388,5.579c-0.021,0.025-0.044,0.05-0.076,0.083l-0.014,0.015c-0.225,0.238-0.643,0.682-0.609,1.362
	c0.022,0.432,0.227,0.826,0.593,1.141c0.455,0.393,0.915,0.442,1.219,0.414c0.736-0.066,1.167-0.596,1.424-0.914
	c0.785-0.967,1.755-1.762,2.783-2.602c0.146,0.818,0.302,1.59,0.473,2.346c0.406,1.793,0.771,3.912,0.4,6.033
	c-0.056,0.32-0.199,0.662-0.349,1.023c-0.223,0.534-0.476,1.14-0.54,1.868c-0.184,2.084,0.594,3.815,1.379,5.234
	c0.678,1.225,1.322,2.492,1.946,3.722c0.874,1.72,1.777,3.498,2.792,5.202c-0.363,0.295-0.693,0.517-1.089,0.582
	c-1.179,0.192-2.344,0.45-3.329,0.677c-1.063,0.245-1.903,0.893-2.364,1.824c-0.461,0.932-0.466,2.043-0.013,3.049
	c0.242,0.537,0.295,1.006,0.154,1.355c-0.128,0.317-0.431,0.572-0.899,0.757c-0.548,0.217-0.912,0.562-1.082,1.025
	c-0.168,0.457-0.117,0.945,0.151,1.451c0.178,0.336,0.41,0.604,0.595,0.818l0.08,0.092c0.406,0.476,0.41,0.662,0.411,0.662
	c-0.001,0.005-0.058,0.188-0.601,0.537c-3.132,2.014-2.982,3.349-2.447,5.535c0.039,0.158,0.079,0.325,0.12,0.5
	c0.259,1.112,0.138,2.05-0.342,2.641c-0.443,0.547-1.235,0.82-2.344,0.796c-0.034-0.001-0.115-0.014-0.179-0.024
	c-0.131-0.021-0.31-0.05-0.511-0.053c-0.447-0.007-0.92-0.107-1.422-0.214c-0.618-0.131-1.257-0.267-1.966-0.267h-0.053
	c-2.242,0-4.527-0.381-6.737-0.75c-0.52-0.087-1.04-0.173-1.561-0.256c-1.294-0.205-2.856-0.343-4.629,0.179
	c-3.921,1.153-6.205,3.92-6.605,8c-0.308,3.142,0.102,4.848,0.499,6.499c0.367,1.524,0.713,2.964,0.292,5.714l-0.004,0.036
	c-0.283,2.669-0.104,5.24,0.548,7.861c0.816,3.282,2.439,6.231,5.108,9.282c0.423,0.484,0.889,0.729,1.388,0.729
	c0.35,0,0.69-0.126,0.985-0.365c0.445-0.361,0.565-0.784,0.588-1.075c0.052-0.673-0.358-1.128-0.578-1.372
	c-2.326-2.581-3.763-5.569-4.393-9.134c-0.415-2.348-0.478-4.752-0.197-7.566c0.188-1.888,0.018-3.62-0.505-5.15
	c-0.787-2.298-0.7-4.709,0.272-7.587c0.53-1.568,2.219-2.38,3.658-2.489c1.797-0.136,3.645,0.102,5.433,0.332
	c1.023,0.131,2.08,0.267,3.148,0.338c0.104,0.007,0.208,0.013,0.316,0.02c0.508,0.03,0.988,0.059,1.399,0.169
	c2.258,0.603,4.571,0.591,6.628,0.58c2.608-0.015,5.179-2.553,5.29-5.222c0.037-0.89-0.051-1.74-0.137-2.565
	c-0.031-0.301-0.063-0.602-0.087-0.904c-0.065-0.808,0.096-1.022,0.648-1.292c1.11-0.544,1.901-1.408,2.226-2.432
	c0.296-0.93,0.187-1.942-0.306-2.848c-0.014-0.025-0.026-0.048-0.036-0.068c0.027-0.025,0.062-0.055,0.106-0.091
	c1.864-1.552,1.437-3.104,1.167-3.7c-0.253-0.559-0.278-1.169-0.307-1.876l-0.001-0.029c-0.004-0.091-0.007-0.182-0.012-0.273
	c1.856-0.079,3.811-0.335,5.539-1.643c1.646-1.245,2.053-2.929,1.06-4.393C82.399,59.46,81.499,57.593,80.629,55.787z"/>
<path style="fill:#E05E36;" d="M170.959,89.45c0.217-4.253-0.618-8.568-2.553-13.19c-2.96-7.074-8.172-12.728-15.492-16.807
	c-3.698-2.061-7.626-3.704-11.427-5.295l-1-0.419c-3.316-1.391-6.744-2.829-9.964-4.625c-3.396-1.895-6.065-3.884-8.16-6.083
	c-2.691-2.825-4.487-5.83-5.49-9.187c-1.258-4.206-1.477-8.025-0.672-11.675c0.102-0.465,0.192-1.153-0.208-1.758
	c-0.185-0.279-0.543-0.637-1.197-0.757c-0.689-0.127-1.165,0.102-1.443,0.316c-0.449,0.347-0.694,0.875-0.75,1.614
	c-0.025,0.328-0.032,0.654-0.038,0.978c-0.009,0.453-0.018,0.88-0.081,1.271c-0.097,0.604-0.17,1.208-0.218,1.81
	c-0.148-0.436-0.466-0.887-1.163-1.04c-0.55-0.122-0.991-0.037-1.277,0.245c-0.918,0.904-1.257,2.672-1.52,4.129
	c-0.916,0.68-1.144,0.934-1.455,1.28c-0.076,0.084-0.156,0.174-0.255,0.277c-0.493,0.52-1.246,1.523-1.632,2.069
	c-1.397,1.979-2.233,3.883-2.555,5.821c-0.418,2.516-0.257,5.104,0.478,7.693c0.293,1.032,0.501,1.954,0.636,2.817
	c0.001,0.007,0.002,0.013,0.003,0.02c-0.021,0.001-0.043,0.003-0.065,0.004c-0.621,0.04-1.218-0.088-1.881-0.4
	c-0.302-0.142-0.902-0.346-1.528-0.114c-0.412,0.153-0.727,0.453-0.911,0.865c-0.169,0.379-0.426,1.34,0.833,2.089
	c0.021,0.012,0.041,0.024,0.058,0.035c1.197,0.773,2.326,1.19,3.443,1.27c-0.318,1.271-0.758,2.337-1.343,3.25
	c-0.54,0.844-1.173,1.671-1.784,2.471c-0.513,0.67-1.043,1.363-1.538,2.09c-0.824,1.207-0.776,2.529,0.134,3.722
	c0.799,1.048,1.816,1.578,2.8,2.092l0.026,0.014c0.11,0.057,0.219,0.115,0.328,0.172c0.211,0.112,0.327,0.202,0.388,0.257
	c-0.035,0.068-0.106,0.182-0.247,0.343c-0.134,0.154-0.273,0.304-0.42,0.463c-0.387,0.417-0.787,0.849-1.135,1.384
	c-0.681,1.049-0.451,1.866-0.138,2.367c0.044,0.07,0.087,0.141,0.131,0.213l0.016,0.025c0.271,0.445,0.55,0.903,0.958,1.308
	c-1.082,1.215-1.058,2.908,0.082,4.181c0.363,0.405,0.682,0.724,1.003,1.005c0.73,0.635,1.034,1.329,0.985,2.251
	c-0.06,1.147,0.092,2.315,0.478,3.673c0.879,3.095,3.962,4.951,7.019,4.226c1.746-0.413,3.336-1.015,5.232-1.758
	c2.771-1.086,5.128-1.757,7.624-1.505c2.16,0.218,3.881,0.975,5.262,2.312c2.368,2.294,3.798,5.404,4.25,9.243
	c0.522,4.429,0.071,8.558-1.34,12.271c-1.619,4.26-4.172,7.984-7.588,11.069c-0.02,0.018-0.048,0.038-0.08,0.06l-0.027,0.02
	c-0.272,0.198-0.778,0.567-0.88,1.236c-0.043,0.283-0.025,0.713,0.305,1.158c0.296,0.399,0.715,0.64,1.181,0.677
	c0.042,0.003,0.084,0.005,0.126,0.005c0.677,0,1.18-0.406,1.541-0.759c0.227-0.222,0.456-0.442,0.687-0.662
	c0.842-0.807,1.714-1.641,2.483-2.599c3.263-4.062,5.267-7.819,6.304-11.824c0.559-2.157,1.192-4.602,1.186-7.189
	c0.047-2.558-0.403-5.169-1.375-7.981c-1.485-4.296-3.639-7.152-6.779-8.99c-2.835-1.659-5.349-2.194-7.912-1.683
	c-2.514,0.502-4.871,1.327-7.266,2.201c-0.291,0.106-0.582,0.219-0.873,0.333c-1.348,0.526-2.621,1.023-3.962,0.747
	c-1.209-0.25-1.545-0.609-1.637-1.745c-0.025-0.309-0.032-0.628-0.04-0.974c-0.019-0.804-0.038-1.636-0.286-2.47
	c-0.52-1.748-1.459-3.188-2.791-4.278c-0.059-0.048-0.109-0.091-0.153-0.129c0.095-0.075,0.22-0.169,0.384-0.287
	c1.07-0.199,1.71-0.942,1.675-1.947c-0.017-0.481-0.229-1.62-1.833-1.813c-0.402-0.048-0.539-0.179-0.59-0.56
	c-0.031-0.234,0.052-0.48,0.568-1.044c1.118-1.221,1.549-2.266,1.356-3.289c-0.195-1.032-0.995-1.859-2.517-2.603
	c-0.106-0.052-0.205-0.086-0.291-0.111c-0.188-0.133-0.371-0.238-0.548-0.339c-0.246-0.141-0.459-0.263-0.521-0.379
	c-0.222-0.411-0.099-0.963,0.33-1.477c1.186-1.422,2.413-2.983,3.35-4.763c0.905-1.717,1.89-4.023,1.473-6.632
	c-0.237-1.486-0.557-2.967-0.866-4.399l-0.011-0.051c-0.169-0.784-0.344-1.594-0.501-2.388c-0.573-2.901,0.061-5.735,1.936-8.646
	c0.002,0.042,0.005,0.083,0.007,0.124c0.44,7.335,3.387,13.548,9.01,18.993c4.122,3.992,8.979,7.018,13.676,9.944l0.37,0.231
	c5.556,3.463,11.367,7.296,15.988,12.686c3.673,4.285,5.775,8.743,6.424,13.627c0.672,5.056,0.198,9.454-1.448,13.444
	c-0.007,0.016-0.016,0.033-0.035,0.072c-0.126,0.253-0.389,0.777-0.163,1.399c0.146,0.399,0.452,0.709,0.887,0.895
	c0.492,0.211,1.036,0.202,1.495-0.025c0.47-0.232,0.817-0.671,0.952-1.203c0.054-0.212,0.178-0.453,0.311-0.711
	c0.174-0.337,0.371-0.718,0.485-1.171c0.102-0.404,0.208-0.807,0.315-1.214c0.435-1.658,0.885-3.372,1.084-5.131
	c0.592-5.23-0.224-10.233-2.426-14.871c-2.215-4.666-5.585-8.898-10.302-12.939c-4.146-3.552-8.779-6.472-13.265-9.299
	c-1.117-0.703-2.508-1.579-3.792-2.41c-3.526-2.279-7.561-5.138-10.757-9.061c-2.179-2.674-3.656-5.584-4.514-8.894
	c-0.531-2.045-0.508-4.116-0.484-6.309l0.001-0.071c0.005-0.507,0.011-1.015,0.009-1.523l-0.001-0.132
	c-0.005-1.002,0.209-1.771,0.448-2.535c0.043-0.136,0.081-0.282,0.116-0.429c0.05,3.604,0.971,7.215,2.789,10.942
	c2.605,5.34,6.795,9.677,12.808,13.26c4.193,2.498,8.708,4.402,13.079,6.244l0.018,0.008c1.554,0.655,3.161,1.332,4.739,2.031
	c5.117,2.267,10.932,5.309,15.276,10.678c1.756,2.17,3.149,4.495,4.14,6.91c1.271,3.095,2.037,6.422,2.275,9.89
	c0.168,2.449-0.074,5.041-0.784,8.407c-0.111,0.528-0.293,1.052-0.486,1.607c-0.179,0.516-0.364,1.049-0.501,1.619
	c-0.133,0.552-0.069,1.035,0.188,1.435c0.165,0.257,0.484,0.587,1.063,0.697c0.109,0.021,0.218,0.032,0.323,0.032
	c0.385,0,1.097-0.149,1.537-1.143c0.06-0.135,0.131-0.273,0.21-0.43c0.18-0.354,0.366-0.719,0.487-1.159
	c0.103-0.373,0.208-0.746,0.315-1.121C170.418,95.038,171.187,92.324,170.959,89.45z"/>
</svg>
