<?xml version="1.0" encoding="iso-8859-1"?>
<!-- Generator: Adobe Illustrator 19.2.1, SVG Export Plug-In . SVG Version: 6.00 Build 0)  -->
<svg version="1.1" id="Layer_1" xmlns="http://www.w3.org/2000/svg" xmlns:xlink="http://www.w3.org/1999/xlink" x="0px" y="0px"
	 viewBox="0 0 172 123" style="enable-background:new 0 0 172 123;" xml:space="preserve">
<path style="fill:#E05E36;" d="M61.322,12.264l13.17,0.138c9.887,0.181,18.037,0.493,24.226,0.927
	c0.351,0.034,0.979,0.102,1.844,0.197c0.731,0.09,1.402,0.225,2.028,0.412c1.678,0.486,3.108,1.352,4.37,2.648l0.025,0.025
	l0.025,0.025c0.483,0.479,1.431,1.733,2.338,4.718c0.37,1.249,0.635,2.389,0.788,3.389l0.525,5.177
	c0.346,4.122,0.521,7.939,0.521,11.345v10.937c0,3.424-0.176,7.248-0.524,11.368c-0.169,2.017-0.341,3.723-0.509,5.074l-0.173,0.997
	c-0.187,0.843-0.399,1.68-0.63,2.492c-0.911,2.988-1.854,4.235-2.336,4.713l-0.021,0.021l-0.021,0.022
	c-1.267,1.295-2.703,2.165-4.375,2.654c-0.601,0.174-1.276,0.311-2.008,0.409c-0.897,0.092-1.533,0.159-1.908,0.203
	c-6.166,0.433-14.306,0.744-24.169,0.924L61.365,81.23c-4.665-0.043-9.703-0.122-14.987-0.238
	c-10.612-0.206-17.755-0.475-21.223-0.798c-1.895-0.181-3.48-0.429-4.709-0.738c-1.942-0.489-3.469-1.326-4.669-2.56l-0.029-0.03
	l-0.03-0.03c-0.484-0.477-1.432-1.726-2.337-4.735c-0.239-0.786-0.449-1.601-0.626-2.425l-0.165-1.011
	c-0.169-1.352-0.341-3.066-0.512-5.096c-0.347-4.116-0.524-7.94-0.524-11.366V41.266c0-3.409,0.175-7.226,0.521-11.345l0.527-5.191
	c0.144-0.988,0.406-2.116,0.782-3.359c0.903-3,1.85-4.248,2.334-4.725l0.03-0.029l0.029-0.03c1.262-1.296,2.692-2.163,4.404-2.658
	c0.593-0.177,1.264-0.312,1.994-0.402l0.039-0.005l0.039-0.006c0.442-0.063,1.04-0.126,1.728-0.183
	c6.186-0.437,14.35-0.75,24.264-0.931C53.19,12.311,57.59,12.264,61.322,12.264 M61.342,8.264c-3.767,0-8.158,0.046-13.172,0.138
	C38.125,8.586,29.968,8.9,23.698,9.343c-0.812,0.067-1.482,0.138-2.012,0.213c-0.957,0.117-1.841,0.297-2.652,0.539
	c-2.34,0.677-4.382,1.911-6.125,3.7c-1.35,1.33-2.469,3.471-3.357,6.422c-0.444,1.472-0.752,2.814-0.923,4.026L8.092,29.55
	c-0.359,4.265-0.538,8.17-0.538,11.715v10.937c0,3.553,0.179,7.455,0.538,11.703c0.18,2.133,0.359,3.909,0.538,5.331l0.192,1.179
	c0.205,0.97,0.449,1.919,0.73,2.847c0.888,2.952,2.007,5.092,3.357,6.422c1.717,1.765,3.904,2.981,6.56,3.649
	c1.435,0.36,3.203,0.64,5.305,0.841c3.588,0.334,10.763,0.606,21.526,0.815c5.382,0.117,10.404,0.196,15.068,0.239l13.184-0.151
	c10.054-0.184,18.22-0.497,24.498-0.941c0.35-0.042,1.017-0.113,1.999-0.213c0.957-0.125,1.841-0.305,2.652-0.54
	c2.34-0.685,4.382-1.919,6.124-3.7c1.341-1.33,2.46-3.47,3.357-6.422c0.265-0.928,0.504-1.877,0.718-2.847l0.205-1.179
	c0.179-1.421,0.359-3.198,0.538-5.331c0.359-4.248,0.538-8.149,0.538-11.703V41.266c0-3.545-0.179-7.451-0.538-11.715l-0.538-5.306
	c-0.179-1.213-0.487-2.554-0.923-4.026c-0.897-2.952-2.016-5.093-3.357-6.422c-1.743-1.79-3.784-3.023-6.124-3.7
	c-0.812-0.242-1.696-0.422-2.652-0.539c-0.982-0.109-1.649-0.18-1.999-0.213c-6.278-0.443-14.44-0.757-24.485-0.94L61.342,8.264
	L61.342,8.264z"/>
<path style="fill:#42A77E;" d="M76.454,56.749h5.977V35.068c0-10.457-8.499-18.963-18.947-18.963h-3.646
	c-10.447,0-18.947,8.506-18.947,18.963v21.681h5.977c-5.678,2.29-9.701,7.852-9.701,14.346v7.006h3.295v-7.006
	c0-6.711,5.455-12.171,12.161-12.171h0.61c0.771,3.933,4.237,6.91,8.389,6.91s7.619-2.978,8.389-6.91h0.609
	c6.705,0,12.161,5.46,12.161,12.171v7.006h3.373v-7.006C86.156,64.601,82.133,59.039,76.454,56.749z M61.623,62.535
	c-2.323,0-4.295-1.517-4.988-3.612h9.976C65.918,61.018,63.946,62.535,61.623,62.535z M73.474,55.888
	c-0.902-0.165-1.826-0.263-2.775-0.263H52.625c-1.112,0-2.194,0.124-3.24,0.348v-2.521h-5.198V35.068
	c0-8.638,7.022-15.665,15.652-15.665h3.646c8.631,0,15.652,7.027,15.652,15.665v18.383h-5.663
	C73.474,53.451,73.474,55.888,73.474,55.888z"/>
<path style="fill:#42A77E;" d="M66.439,28.886c0.248-0.42,0.485-0.847,0.708-1.284l0.253-0.496l-2.721-1.416l-0.257,0.504
	c-3.28,6.432-9.767,10.76-16.929,11.296l-0.558,0.042l0.218,3.056l0.563-0.043c0.445-0.034,0.887-0.087,1.328-0.146v1.105
	c0,6.517,5.297,11.818,11.808,11.818H62.3c6.511,0,11.809-5.301,11.809-11.818v-6.011c0.431,0.08,0.862,0.159,1.298,0.215
	l0.549,0.071l0.434-3.04l-0.557-0.078C72.365,32.173,69.146,30.873,66.439,28.886z M71.054,41.504c0,4.831-3.927,8.761-8.754,8.761
	h-1.449c-4.827,0-8.753-3.93-8.753-8.761v-1.722c4.977-1.354,9.423-4.298,12.6-8.348c1.949,1.418,4.093,2.511,6.355,3.265
	L71.054,41.504L71.054,41.504z"/>
<path style="fill:#42A77E;" d="M139.857,50.074c0.026,0,0.053-0.001,0.08-0.004c0.519,0,0.931-0.409,0.931-0.922v-3.23
	c0-0.513-0.413-0.921-0.931-0.921c-0.519,0-0.931,0.408-0.931,0.921v3.23C139.006,49.635,139.377,50.074,139.857,50.074z"/>
<path style="fill:#42A77E;" d="M131.176,51.718c0.158,0.309,0.518,0.461,0.831,0.461c0.154,0,0.312,0,0.466-0.104
	c0.471-0.257,0.624-0.822,0.365-1.283l-1.608-2.769c-0.175-0.314-0.491-0.485-0.821-0.485c-0.16,0-0.323,0.04-0.475,0.124
	c-0.471,0.256-0.624,0.821-0.365,1.282L131.176,51.718z"/>
<path style="fill:#42A77E;" d="M122.933,56.273l2.799,1.591c0.154,0.052,0.312,0.105,0.466,0.105c0.312,0,0.677-0.152,0.83-0.461
	c0.259-0.461,0.101-1.026-0.365-1.287l-2.799-1.591c-0.151-0.083-0.313-0.123-0.472-0.123c-0.331,0-0.649,0.172-0.824,0.484
	C122.309,55.452,122.467,56.017,122.933,56.273z"/>
<path style="fill:#42A77E;" d="M125.002,64.898c0-0.513-0.413-0.922-0.931-0.922h-3.265c-0.518,0-0.931,0.409-0.931,0.922
	s0.413,0.921,0.931,0.921h3.265C124.589,65.82,125.007,65.411,125.002,64.898z"/>
<path style="fill:#42A77E;" d="M126.184,71.801c-0.16,0-0.318,0.041-0.453,0.126l-2.799,1.591c-0.471,0.256-0.624,0.822-0.365,1.282
	c0.158,0.309,0.519,0.461,0.83,0.461c0.154,0,0.312,0,0.466-0.104l2.799-1.591c0.471-0.256,0.624-0.822,0.365-1.282
	C126.853,71.974,126.514,71.801,126.184,71.801z"/>
<path style="fill:#42A77E;" d="M156.995,73.562l-2.799-1.591c-0.151-0.083-0.313-0.123-0.472-0.123
	c-0.331,0-0.649,0.172-0.824,0.484c-0.259,0.461-0.101,1.026,0.365,1.283l2.799,1.591c0.154,0.052,0.312,0.105,0.466,0.105
	c0.312,0,0.677-0.152,0.831-0.461C157.619,74.388,157.46,73.823,156.995,73.562z"/>
<path style="fill:#42A77E;" d="M159.207,63.972c-0.028,0-0.057,0.001-0.086,0.005h-3.265c-0.518,0-0.931,0.409-0.931,0.922
	s0.413,0.921,0.931,0.921h3.265c0.518,0,0.931-0.409,0.931-0.921C160.053,64.414,159.685,63.972,159.207,63.972z"/>
<path style="fill:#42A77E;" d="M153.73,57.974c0.154,0,0.312,0,0.466-0.105l2.799-1.591c0.47-0.256,0.624-0.822,0.365-1.282
	c-0.175-0.313-0.491-0.485-0.821-0.485c-0.16,0-0.323,0.04-0.475,0.124l-2.799,1.591c-0.471,0.257-0.624,0.822-0.365,1.282
	C153.106,57.817,153.418,57.973,153.73,57.974z"/>
<path style="fill:#42A77E;" d="M147.455,52.07c0.153,0.052,0.312,0.104,0.466,0.104c0.312,0,0.677-0.152,0.831-0.461l1.608-2.769
	c0.259-0.461,0.101-1.026-0.365-1.282c-0.151-0.083-0.313-0.123-0.472-0.123c-0.331,0-0.649,0.173-0.824,0.484l-1.609,2.769
	C146.831,51.253,146.99,51.818,147.455,52.07z"/>
<path style="fill:#42A77E;" d="M163.835,94.417c0-0.594,0-6.993,0-8.444c-0.067-2.639-1.8-4.948-4.334-5.805
	c-1.534-0.528-2.601-0.396-3.334-0.066c-0.267-0.396-0.6-0.726-0.933-0.99c-1.2-1.056-3.201-1.847-4.934-1.385
	c-0.2,0.066-0.333,0.132-0.533,0.198c-0.133-0.132-0.2-0.264-0.333-0.396c-0.934-1.055-2.267-1.781-3.734-2.045
	c-0.333-0.066-0.667-0.066-1-0.066c3.667-1.781,6.201-5.475,6.201-9.763c0-5.937-4.934-10.819-10.935-10.819
	c-6.001,0-10.936,4.882-10.936,10.819c0,4.288,2.534,8.048,6.268,9.763V87.16c-2.067,0.528-3.734,2.111-4.268,4.156
	c-0.267,0.924-0.267,1.781-0.2,2.573c0,0.198,0,6.465,0,8.114c0,2.969,1.267,5.409,2.534,7.85l0.133,0.264
	c1.2,2.375,3.401,4.024,5.935,4.618c1.067,0.264,2,0.264,3.001,0.264h0.267h8.935c0.2,0,0.467,0,0.667,0c0.267,0,0.467,0,0.733,0
	c2.467,0,4.801-0.99,6.468-2.771c2.267-2.309,3.201-5.673,3.801-8.972C163.902,100.222,163.902,97.451,163.835,94.417z
	 M135.229,68.491c0,0.594,0,1.253,0,1.847v1.649c-1.934-1.451-3.201-3.76-3.201-6.333c0-4.354,3.534-7.85,7.935-7.85
	s7.935,3.496,7.935,7.85c0,2.573-1.267,4.882-3.267,6.333v-3.035c0-2.639-1.334-4.552-3.667-5.079c-1.4-0.33-2.801,0-3.867,0.858
	C135.963,65.655,135.229,66.974,135.229,68.491z M160.368,102.663c-0.6,2.837-1.334,5.739-3.067,7.521
	c-1.134,1.187-2.667,1.781-4.334,1.847c-0.467,0-0.867,0-1.334,0h-0.667h-8.535c-0.8,0-1.6,0-2.267-0.132
	c-1.734-0.396-3.134-1.517-4.001-3.101l-0.133-0.264c-1.134-2.177-2.2-4.222-2.2-6.465c0-1.715,0-7.982,0-8.18
	c0-0.66,0-1.253,0.133-1.715c0.2-0.792,0.733-1.385,1.4-1.781v6.597c0,0.792,0.667,1.517,1.534,1.517c0.8,0,1.534-0.66,1.534-1.517
	V76.341v-3.034v-2.111v-0.923c0-0.594,0-1.188,0-1.781c0-0.594,0.267-1.121,0.733-1.451c0.267-0.198,0.733-0.396,1.334-0.264
	c0.867,0.198,1.334,0.924,1.334,2.177v4.42v2.968v6.135c0,0.792,0.667,1.517,1.534,1.517c0.8,0,1.534-0.66,1.534-1.517v-4.156
	c0.133,0,0.333-0.066,0.534,0c0.733,0.132,1.467,0.528,1.934,1.055c0.8,0.923,0.867,1.979,0.867,3.694v0.066v0.462
	c0,0.792,0.667,1.517,1.534,1.517c0.867,0,1.534-0.66,1.534-1.517v-0.462V83.07v-1.781c0-0.264,0-0.594,0.067-0.792
	c0.533-0.132,1.467,0.264,2.134,0.792c0.734,0.594,1.2,1.583,1.2,2.506v1.32c0,0.792,0.667,1.517,1.534,1.517
	c0.867,0,1.534-0.659,1.534-1.517v-1.253c0,0,0,0,0-0.066v-0.528c0-0.198,0-0.528,0-0.528c0.067-0.066,0.4-0.066,1.134,0.132
	c1.334,0.462,2.2,1.715,2.267,3.101c-0.333,1.517-0.333,7.85-0.333,8.51C160.835,97.32,160.901,99.958,160.368,102.663z"/>
</svg>
