<?xml version="1.0" encoding="iso-8859-1"?>
<!-- Generator: Adobe Illustrator 19.2.1, SVG Export Plug-In . SVG Version: 6.00 Build 0)  -->
<svg version="1.1" id="Layer_1" xmlns="http://www.w3.org/2000/svg" xmlns:xlink="http://www.w3.org/1999/xlink" x="0px" y="0px"
	 viewBox="0 0 172 123" style="enable-background:new 0 0 172 123;" xml:space="preserve">
<path style="fill:#42A77E;" d="M68.494,56.353c-1.753,0.003-3.492,0.427-4.955,0.922c-1.621,0.549-2.853,1.73-3.911,2.759
	c-0.417,0.405-0.427,0.448-0.727,0.773c-0.248-0.184-0.235-0.187-0.539-0.401c-1.027-0.715-2.219-1.522-3.514-1.939
	c-2.127-0.685-4.882-1.463-7.56-0.352c-3.284,1.363-6.366,4.294-7.022,8.102c-0.713,4.133,1.886,7.723,3.932,10.353
	c2.036,2.617,5.538,5.087,8.604,7.065c3.066,1.979,5.689,3.383,5.689,3.383c0.583,0.312,1.291,0.263,1.824-0.128
	c0,0,1.977-1.442,4.329-3.356s5.066-4.257,6.752-6.339c2.044-2.524,4.717-5.511,5.164-9.486c0.357-3.184-0.008-7.362-3.043-9.757
	C72.011,56.766,70.247,56.35,68.494,56.353L68.494,56.353z M64.637,60.57c2.368-0.802,5.381-0.965,6.759,0.122
	c1.424,1.123,2.014,4.155,1.737,6.624c-0.286,2.541-2.324,5.122-4.403,7.688c-1.311,1.619-3.975,3.97-6.254,5.824
	c-1.797,1.462-2.716,2.137-3.299,2.57c-0.663-0.364-2.082-1.12-4.517-2.691c-2.94-1.897-6.305-4.422-7.749-6.279
	c-1.913-2.46-3.629-5.394-3.245-7.621c0.369-2.14,2.653-4.531,4.935-5.479c1.257-0.521,3.269-0.174,5.197,0.448
	c0.494,0.16,1.688,0.846,2.605,1.485s1.622,1.207,1.622,1.207c0.728,0.591,1.792,0.49,2.397-0.229c0,0,0.677-0.815,1.596-1.708
	C62.936,61.637,64.202,60.719,64.637,60.57L64.637,60.57z"/>
<path style="fill:#42A77E;" d="M164.011,55.347l-2.235-44.566c-0.216-4.33-3.708-7.813-8.018-8c-0.143,0-39.279-3.612-59.257-2.603
	V0.174c-2.128,0.108-5.518,0.795-5.608,0.813c-0.003,0.001-0.004,0-0.007,0c-6,0.881-10.364,6.246-10.017,12.326l1.206,20.651
	c1.208,0.06,2.363,0.119,3.464,0.175l-1.223-21.031c-0.246-4.313,2.803-8.069,7.076-8.692c0.027,0.001,3.775-0.691,5.285-0.766
	c19.37-0.977,58.907,2.597,58.934,2.596c2.569,0.111,4.598,2.135,4.726,4.699l2.235,44.579c0.138,2.666-1.824,4.936-4.49,5.18
	l-16.305,1.491c-0.557,0.052-1.054,0.373-1.333,0.861l-9.398,16.361l-1.703-15.554c-0.103-0.953-0.952-1.642-1.899-1.539
	l-19.695,2.137c0.055,1.261,0.105,2.44,0.149,3.476l18.206-1.972l2.094,19.086c0.105,0.952,0.958,1.639,1.904,1.533
	c0.544-0.061,1.027-0.379,1.301-0.855l11.573-20.157l15.417-1.41C160.851,63.752,164.239,59.847,164.011,55.347z"/>
<path style="fill:#E05E36;" d="M134.44,18.089c-1.753,0.003-3.499,0.427-4.962,0.922c-1.618,0.549-2.847,1.731-3.905,2.76
	c-0.417,0.405-0.427,0.448-0.727,0.773c-0.248-0.184-0.235-0.187-0.538-0.4c-1.027-0.715-2.219-1.521-3.514-1.939
	c-2.127-0.685-4.882-1.463-7.56-0.353c-3.284,1.363-6.366,4.294-7.022,8.102c-0.713,4.133,1.886,7.723,3.932,10.353
	c2.036,2.617,5.538,5.087,8.604,7.065c3.066,1.978,5.689,3.383,5.689,3.383c0.582,0.313,1.291,0.263,1.825-0.128
	c0,0,1.977-1.449,4.329-3.363c2.352-1.914,5.066-4.251,6.752-6.333c2.044-2.524,4.717-5.511,5.164-9.485
	c0.357-3.184-0.008-7.363-3.043-9.757C137.956,18.503,136.193,18.086,134.44,18.089L134.44,18.089z M130.582,22.306
	c2.368-0.802,5.374-0.965,6.752,0.121c1.425,1.124,2.021,4.156,1.744,6.624c-0.286,2.541-2.324,5.122-4.403,7.688
	c-1.311,1.619-3.975,3.97-6.254,5.824c-1.797,1.462-2.716,2.136-3.299,2.57c-0.663-0.364-2.082-1.12-4.517-2.692
	c-2.939-1.896-6.305-4.421-7.749-6.278c-1.913-2.459-3.629-5.395-3.245-7.621c0.369-2.141,2.653-4.531,4.935-5.478
	c1.257-0.521,3.269-0.174,5.197,0.447c0.495,0.16,1.688,0.846,2.605,1.485s1.623,1.207,1.623,1.207
	c0.728,0.591,1.792,0.49,2.397-0.229c0,0,0.677-0.815,1.595-1.708C128.882,23.373,130.148,22.454,130.582,22.306L130.582,22.306z"/>
<path style="fill:#E05E36;" d="M103.606,92.848c0,0-0.665-16.455-1.017-24.686c-0.314-7.445-0.983-22.32-0.983-22.32
	c-0.231-4.459-3.891-8.02-8.348-8.042c0,0-28.874-1.723-43.524-1.749c-0.002,0-0.005,0-0.007,0V36.03
	c-10.281,0-30.627,1.118-30.645,1.119C12.864,37.872,8.45,43.43,8.85,49.623c-0.067,0.231,6.369,51.129,6.369,51.129
	c0.538,4.265,4.209,7.356,8.34,7.356c0.444,0,16.798-0.568,16.798-0.568l22.068,15.16c0.297,0.203,0.633,0.3,0.967,0.3
	c0.552,0,1.094-0.266,1.428-0.761c0.243-0.361,0.343-0.802,0.278-1.234l-2.504-16.448l33.735-3.024c0.016,0,0.031,0.001,0.047,0.001
	s0.031,0,0.047-0.001C100.665,100.916,103.785,97.152,103.606,92.848z M95.925,98.074l-35.465,3.187
	c-0.948,0.087-1.647,0.931-1.561,1.886c0.003,0.033,0.007,0.067,0.012,0.1l2.181,14.326l-19.254-13.228
	c-0.288-0.2-0.629-0.306-0.978-0.306c-0.015,0-0.03,0-0.046,0.001c0,0-16.985,0.603-17.291,0.603c-2.45,0-4.566-1.806-4.885-4.331
	c0,0-6.419-50.377-6.423-50.417c-0.586-4.599,2.653-8.756,7.257-9.295c0,0,20.259-1.105,30.255-1.105v0.007
	c14.387,0.035,43.495,1.743,43.51,1.743c2.662,0,4.789,2.076,4.928,4.746c0.001,0.035,0.662,14.872,0.976,22.3
	c0.351,8.221,1.017,24.679,1.017,24.679C100.265,95.516,98.455,97.706,95.925,98.074z"/>
</svg>
